<mxfile host="app.diagrams.net" modified="2024-02-07T19:38:39.972Z" agent="Mozilla/5.0 (Windows NT 10.0; Win64; x64) AppleWebKit/537.36 (KHTML, like Gecko) Chrome/121.0.0.0 Safari/537.36" etag="7nnWbzwEom72TsbwlALs" version="23.1.2" type="github">
  <diagram name="Page-1" id="pXNyv-EE21xkfKBQCVl2">
    <mxGraphModel dx="1196" dy="771" grid="1" gridSize="10" guides="1" tooltips="1" connect="1" arrows="1" fold="1" page="1" pageScale="1" pageWidth="850" pageHeight="1100" math="0" shadow="0">
      <root>
        <mxCell id="0" />
        <mxCell id="1" parent="0" />
        <mxCell id="XPFpoo8_yCa8bF2yxXlc-1" value="Windows 10 Client&lt;br&gt;Wazuh Agent" style="fontColor=#0066CC;verticalAlign=top;verticalLabelPosition=bottom;labelPosition=center;align=center;html=1;outlineConnect=0;fillColor=#CCCCCC;strokeColor=#6881B3;gradientColor=none;gradientDirection=north;strokeWidth=2;shape=mxgraph.networks.pc;" vertex="1" parent="1">
          <mxGeometry x="335" y="550" width="100" height="70" as="geometry" />
        </mxCell>
        <mxCell id="XPFpoo8_yCa8bF2yxXlc-2" value="Router" style="image;html=1;image=img/lib/clip_art/networking/Router_Icon_128x128.png" vertex="1" parent="1">
          <mxGeometry x="335" y="390" width="80" height="80" as="geometry" />
        </mxCell>
        <mxCell id="XPFpoo8_yCa8bF2yxXlc-3" value="Wazuh Manager" style="ellipse;shape=cloud;whiteSpace=wrap;html=1;" vertex="1" parent="1">
          <mxGeometry x="100" y="200" width="120" height="80" as="geometry" />
        </mxCell>
        <mxCell id="XPFpoo8_yCa8bF2yxXlc-4" value="Internet" style="ellipse;shape=cloud;whiteSpace=wrap;html=1;" vertex="1" parent="1">
          <mxGeometry x="315" y="200" width="120" height="80" as="geometry" />
        </mxCell>
        <mxCell id="XPFpoo8_yCa8bF2yxXlc-5" value="Shuffle" style="ellipse;shape=cloud;whiteSpace=wrap;html=1;" vertex="1" parent="1">
          <mxGeometry x="315" y="60" width="120" height="80" as="geometry" />
        </mxCell>
        <mxCell id="XPFpoo8_yCa8bF2yxXlc-6" value="TheHive" style="ellipse;shape=cloud;whiteSpace=wrap;html=1;" vertex="1" parent="1">
          <mxGeometry x="530" y="200" width="120" height="80" as="geometry" />
        </mxCell>
        <mxCell id="XPFpoo8_yCa8bF2yxXlc-7" value="SOC Analyst" style="fontColor=#0066CC;verticalAlign=top;verticalLabelPosition=bottom;labelPosition=center;align=center;html=1;outlineConnect=0;fillColor=#CCCCCC;strokeColor=#6881B3;gradientColor=none;gradientDirection=north;strokeWidth=2;shape=mxgraph.networks.pc;" vertex="1" parent="1">
          <mxGeometry x="560" y="395" width="100" height="70" as="geometry" />
        </mxCell>
      </root>
    </mxGraphModel>
  </diagram>
</mxfile>
